<svg width="15" height="15" viewBox="0 0 15 15" fill="none" xmlns="http://www.w3.org/2000/svg">
<path d="M8 13.5C7.72386 13.5 7.5 13.2761 7.5 13V12.6667C7.5 12.3905 7.72386 12.1667 8 12.1667H11.6667C11.9428 12.1667 12.1667 11.9428 12.1667 11.6667V3.33333C12.1667 3.05719 11.9428 2.83333 11.6667 2.83333H8C7.72386 2.83333 7.5 2.60948 7.5 2.33333V2C7.5 1.72386 7.72386 1.5 8 1.5H12.1667C12.5333 1.5 12.8472 1.63056 13.1083 1.89167C13.3694 2.15278 13.5 2.46667 13.5 2.83333V12.1667C13.5 12.5333 13.3694 12.8472 13.1083 13.1083C12.8472 13.3694 12.5333 13.5 12.1667 13.5H8ZM6.52973 10.4703C6.33079 10.6692 6.00695 10.6649 5.81337 10.4608L5.58503 10.22C5.39858 10.0233 5.40268 9.71398 5.59429 9.52238L6.95 8.16667H2C1.72386 8.16667 1.5 7.94281 1.5 7.66667V7.33333C1.5 7.05719 1.72386 6.83333 2 6.83333H6.95L5.59429 5.47763C5.40268 5.28602 5.39858 4.97665 5.58503 4.78003L5.81337 4.53924C6.00695 4.33509 6.33079 4.33079 6.52973 4.52973L9.14645 7.14645C9.34171 7.34171 9.34171 7.65829 9.14645 7.85355L6.52973 10.4703Z" fill="#09090B"/>
</svg>
